<svg width="1280" height="720" xmlns="http://www.w3.org/2000/svg" xmlns:xlink="http://www.w3.org/1999/xlink" overflow="hidden"><defs><clipPath id="clip0"><rect x="0" y="0" width="1280" height="720"/></clipPath></defs><g clip-path="url(#clip0)"><rect x="0" y="0" width="1280" height="720" fill="#FFFFFF"/><path d="M357.5 383C357.5 226.427 484.203 99.5001 640.5 99.5001 796.797 99.5001 923.5 226.427 923.5 383 923.5 539.573 796.797 666.5 640.5 666.5 484.203 666.5 357.5 539.573 357.5 383Z" stroke="#000000" stroke-width="1.33333" stroke-miterlimit="8" fill-rule="evenodd"/><path d="M451.5 383.5C451.5 279.118 536.118 194.5 640.5 194.5 744.882 194.5 829.5 279.118 829.5 383.5 829.5 487.882 744.882 572.5 640.5 572.5 536.118 572.5 451.5 487.882 451.5 383.5Z" stroke="#FFFFFF" stroke-width="1.33333" stroke-miterlimit="8" fill="#FFFFFF" fill-rule="evenodd"/><path d="M504.5 98.5001 776.5 98.5001 722.1 274.5 558.9 274.5Z" stroke="#FFFFFF" stroke-width="1.33333" stroke-miterlimit="8" fill="#FFFFFF" fill-rule="evenodd"/><path d="M574.5 13.1864C574.5 6.17993 580.18 0.500053 587.186 0.500053L693.814 0.500053C700.82 0.500053 706.5 6.17993 706.5 13.1864L706.5 392.814C706.5 399.82 700.82 405.5 693.814 405.5L587.186 405.5C580.18 405.5 574.5 399.82 574.5 392.814Z" stroke="#000000" stroke-width="1.33333" stroke-miterlimit="8" fill-rule="evenodd"/></g></svg>